<?xml version="1.0" encoding="utf-8"?>
<!-- Generator: Adobe Illustrator 19.0.0, SVG Export Plug-In . SVG Version: 6.00 Build 0)  -->
<svg version="1.1" id="Capa_1" xmlns="http://www.w3.org/2000/svg" xmlns:xlink="http://www.w3.org/1999/xlink" x="0px" y="0px"
	 viewBox="460.5 -0.2 19.4 24" style="enable-background:new 460.5 -0.2 19.4 24;" xml:space="preserve">
<style type="text/css">
	.st0{fill:#CC3333;}
</style>
<g>
	<g>
		<path class="st0" d="M477.2,2.7h-3.7c-0.2-1.6-1.6-2.9-3.2-2.9c-1.7,0-3,1.3-3.2,2.9h-3.7c-1.5,0-2.7,1.2-2.7,2.7v0.1
			c0,1.2,0.7,2.1,1.7,2.5l1.3,13c0,1.5,1.2,2.7,2.7,2.7h7.7c1.5,0,2.7-1.2,2.7-2.7l1.4-13c1-0.4,1.7-1.4,1.7-2.5V5.4
			C479.9,3.9,478.7,2.7,477.2,2.7z M470.2,1.1c0.9,0,1.7,0.7,1.9,1.6h-3.8C468.5,1.8,469.3,1.1,470.2,1.1z M475.4,21
			c0,0.8-0.6,1.4-1.4,1.4h-7.7c-0.8,0-1.4-0.6-1.4-1.4l-1.3-12.8h13.3L475.4,21z M478.6,5.5c0,0.8-0.6,1.4-1.4,1.4h-13.9
			c-0.8,0-1.4-0.6-1.4-1.4V5.4c0-0.8,0.6-1.4,1.4-1.4h13.9c0.8,0,1.4,0.6,1.4,1.4L478.6,5.5L478.6,5.5z"/>
		<path class="st0" d="M467.4,19.8c0.4,0,0.7-0.3,0.7-0.7l-1.3-7.3c0-0.4-0.3-0.7-0.7-0.7s-0.7,0.3-0.7,0.7l1.3,7.3
			C466.8,19.5,467.1,19.8,467.4,19.8z"/>
		<path class="st0" d="M470.2,19.9c0.4,0,0.7-0.3,0.7-0.7v-8.8c0-0.4-0.3-0.7-0.7-0.7c-0.4,0-0.7,0.3-0.7,0.7v8.8
			C469.6,19.6,469.9,19.9,470.2,19.9z"/>
		<path class="st0" d="M473,19.8c0.4,0,0.7-0.3,0.7-0.7l1.4-7.3c0-0.4-0.3-0.7-0.7-0.7c-0.4,0-0.7,0.3-0.7,0.7l-1.4,7.3
			C472.3,19.5,472.6,19.8,473,19.8z"/>
	</g>
</g>
</svg>
