<?xml version="1.0" encoding="utf-8"?>
<!-- Generator: Adobe Illustrator 19.0.0, SVG Export Plug-In . SVG Version: 6.00 Build 0)  -->
<svg version="1.1" id="Layer_1" xmlns="http://www.w3.org/2000/svg" xmlns:xlink="http://www.w3.org/1999/xlink" x="0px" y="0px"
	 viewBox="-293 385.1 24 23.9" style="enable-background:new -293 385.1 24 23.9;" xml:space="preserve">
<style type="text/css">
	.st0{fill:#4181C3;}
</style>
<g>
	<g>
		<path class="st0" d="M-270.2,399.8c-0.3,0-0.6,0.3-0.6,0.6v5.4c0,1-0.8,1.8-1.8,1.8h-17c-1,0-1.8-0.8-1.8-1.8V390
			c0-1,0.8-1.8,1.8-1.8h5.4c0.3,0,0.6-0.3,0.6-0.6c0-0.3-0.3-0.6-0.6-0.6h-5.4c-1.7,0-3,1.4-3,3v15.8c0,1.7,1.4,3,3,3h17
			c1.7,0,3-1.4,3-3v-5.4C-269.6,400.1-269.9,399.8-270.2,399.8z"/>
		<path class="st0" d="M-272.7,409h-17c-1.8,0-3.3-1.5-3.3-3.3V390c0-1.8,1.5-3.3,3.3-3.3h5.4c0.5,0,0.9,0.4,0.9,0.9
			s-0.4,0.9-0.9,0.9h-5.4c-0.9,0-1.6,0.7-1.6,1.6v15.8c0,0.9,0.7,1.6,1.6,1.6h17c0.9,0,1.6-0.7,1.6-1.6v-5.4c0-0.5,0.4-0.9,0.9-0.9
			s0.9,0.4,0.9,0.9v5.4C-269.4,407.6-270.8,409-272.7,409z M-289.6,387.2c-1.5,0-2.8,1.2-2.8,2.8v15.8c0,1.5,1.2,2.8,2.8,2.8h17
			c1.5,0,2.8-1.2,2.8-2.8v-5.4c0-0.2-0.2-0.4-0.4-0.4c-0.2,0-0.4,0.2-0.4,0.4v5.4c0,1.1-0.9,2.1-2.1,2.1h-17c-1.1,0-2.1-0.9-2.1-2.1
			V390c0-1.1,0.9-2.1,2.1-2.1h5.4c0.2,0,0.4-0.2,0.4-0.4c0-0.2-0.2-0.4-0.4-0.4h-5.3V387.2z"/>
	</g>
	<path class="st0" d="M-283.1,396.4l9.2-9.2l3,3l-9.2,9.2L-283.1,396.4z"/>
	<path class="st0" d="M-284.6,400.8l3.3-0.9l-2.4-2.4L-284.6,400.8z"/>
	<path class="st0" d="M-270.1,385.6c-0.6-0.6-1.6-0.6-2.2,0l-0.7,0.7l3,3l0.7-0.7c0.6-0.6,0.6-1.6,0-2.2L-270.1,385.6z"/>
</g>
</svg>
